<svg xmlns="http://www.w3.org/2000/svg" width="1200" height="760" viewBox="0 0 1200 760">
  <rect width="1200" height="760" fill="#f8fafc"/>
  <text x="60" y="80" font-family="Helvetica, Arial, sans-serif" font-size="44" fill="#111827">ライティングの種類</text>

  <rect x="60" y="120" width="250" height="280" rx="18" fill="#fff" stroke="#cbd5e1"/>
  <text x="95" y="170" font-family="Helvetica, Arial, sans-serif" font-size="30" fill="#111827">Point</text>
  <circle cx="185" cy="250" r="22" fill="#f59e0b"/>
  <circle cx="185" cy="250" r="70" fill="none" stroke="#f59e0b" stroke-opacity="0.45"/>
  <circle cx="185" cy="250" r="105" fill="none" stroke="#f59e0b" stroke-opacity="0.25"/>

  <rect x="340" y="120" width="250" height="280" rx="18" fill="#fff" stroke="#cbd5e1"/>
  <text x="385" y="170" font-family="Helvetica, Arial, sans-serif" font-size="30" fill="#111827">Sun</text>
  <line x1="380" y1="300" x2="530" y2="210" stroke="#f59e0b" stroke-width="10"/>
  <line x1="400" y1="340" x2="550" y2="250" stroke="#f59e0b" stroke-width="10"/>
  <line x1="420" y1="380" x2="570" y2="290" stroke="#f59e0b" stroke-width="10"/>

  <rect x="620" y="120" width="250" height="280" rx="18" fill="#fff" stroke="#cbd5e1"/>
  <text x="670" y="170" font-family="Helvetica, Arial, sans-serif" font-size="30" fill="#111827">Spot</text>
  <circle cx="745" cy="230" r="18" fill="#f59e0b"/>
  <polygon points="745,250 680,380 810,380" fill="#fde68a" opacity="0.7" stroke="#f59e0b"/>

  <rect x="900" y="120" width="250" height="280" rx="18" fill="#fff" stroke="#cbd5e1"/>
  <text x="950" y="170" font-family="Helvetica, Arial, sans-serif" font-size="30" fill="#111827">Area</text>
  <rect x="950" y="220" width="140" height="70" rx="8" fill="#fcd34d"/>
  <ellipse cx="1020" cy="360" rx="110" ry="30" fill="#fde68a" opacity="0.7"/>

  <rect x="60" y="450" width="1090" height="240" rx="18" fill="#ffffff" stroke="#cbd5e1"/>
  <text x="90" y="510" font-family="Helvetica, Arial, sans-serif" font-size="32" fill="#111827">3点照明（Key / Fill / Rim）</text>
  <circle cx="560" cy="610" r="55" fill="#e2e8f0" stroke="#94a3b8"/>
  <circle cx="410" cy="560" r="18" fill="#f59e0b"/>
  <text x="360" y="545" font-family="Helvetica, Arial, sans-serif" font-size="24" fill="#92400e">Key</text>
  <circle cx="430" cy="650" r="14" fill="#facc15"/>
  <text x="360" y="685" font-family="Helvetica, Arial, sans-serif" font-size="24" fill="#92400e">Fill</text>
  <circle cx="720" cy="560" r="14" fill="#fef08a"/>
  <text x="740" y="565" font-family="Helvetica, Arial, sans-serif" font-size="24" fill="#92400e">Rim</text>
  <line x1="420" y1="565" x2="510" y2="595" stroke="#f59e0b" stroke-width="4"/>
  <line x1="440" y1="645" x2="515" y2="625" stroke="#facc15" stroke-width="4"/>
  <line x1="710" y1="565" x2="610" y2="595" stroke="#fef08a" stroke-width="4"/>
</svg>
