<svg xmlns="http://www.w3.org/2000/svg" width="1200" height="700" viewBox="0 0 1200 700">
  <rect width="1200" height="700" fill="#f8fafc"/>
  <text x="60" y="80" font-family="Helvetica, Arial, sans-serif" font-size="44" fill="#111827">法線とノーマルマップ</text>

  <rect x="70" y="130" width="500" height="500" rx="20" fill="#ffffff" stroke="#d1d5db"/>
  <text x="100" y="180" font-family="Helvetica, Arial, sans-serif" font-size="32" fill="#1f2937">実際の面（低ポリ）</text>
  <rect x="180" y="250" width="280" height="220" rx="12" fill="#bfdbfe" stroke="#1d4ed8" stroke-width="5"/>
  <line x1="320" y1="360" x2="320" y2="220" stroke="#dc2626" stroke-width="8"/>
  <polygon points="320,200 305,232 335,232" fill="#dc2626"/>
  <text x="340" y="250" font-family="Helvetica, Arial, sans-serif" font-size="28" fill="#dc2626">Normal</text>

  <rect x="630" y="130" width="500" height="500" rx="20" fill="#ffffff" stroke="#d1d5db"/>
  <text x="660" y="180" font-family="Helvetica, Arial, sans-serif" font-size="32" fill="#1f2937">ノーマルマップで見た目を補う</text>
  <defs>
    <linearGradient id="nm" x1="0" x2="1" y1="0" y2="1">
      <stop offset="0%" stop-color="#7dd3fc"/>
      <stop offset="50%" stop-color="#c084fc"/>
      <stop offset="100%" stop-color="#60a5fa"/>
    </linearGradient>
  </defs>
  <rect x="740" y="250" width="280" height="220" rx="12" fill="url(#nm)" stroke="#4338ca" stroke-width="5"/>
  <path d="M760 290 C800 250, 860 330, 900 290 S980 250, 1000 310" fill="none" stroke="#ffffff" stroke-width="6" opacity="0.8"/>
  <path d="M760 380 C820 340, 860 430, 930 390 S990 360, 1010 430" fill="none" stroke="#0f172a" stroke-width="6" opacity="0.35"/>
  <text x="690" y="520" font-family="Helvetica, Arial, sans-serif" font-size="28" fill="#374151">ポリゴン数を増やさず、陰影だけ細かくする</text>
</svg>
